<svg width="105" height="46" viewBox="0 0 105 46" fill="none" xmlns="http://www.w3.org/2000/svg">
<g clip-path="url(#clip0_996_1948)">
<path d="M19.6133 12.6361L19.9781 10.6804C20.0847 10.1105 21.0927 5.03508 23.6777 2.4232C24.8516 1.23663 26.4758 0.624037 28.1321 0.741882C29.6719 0.852615 31.0488 1.58 31.9091 2.73813C33.677 5.11838 33.1373 8.55518 30.7051 10.4011C28.6839 11.9351 22.747 12.4186 21.5772 12.4999L19.6133 12.6361ZM25.8285 4.59723C24.7632 5.67408 23.9712 7.63579 23.4827 9.22669C25.8667 8.93512 28.2125 8.44648 28.8789 7.94157C29.9694 7.11463 30.2377 5.60805 29.4769 4.58402C29.1512 4.14515 28.5683 3.85562 27.918 3.80889C27.1421 3.75504 26.3803 4.04051 25.8295 4.59723H25.8285Z" fill="#E06290"/>
<path d="M31.3437 9.21387H12.2617V25.2793H31.3437V9.21387Z" fill="#FF8D78"/>
<path d="M77.9998 28.2564C77.5224 28.0096 76.9826 27.9974 76.5012 28.1813C76.0469 28.353 75.6459 28.6994 75.4017 29.1819C75.3474 29.2906 75.3022 29.4511 75.265 29.6523C75.2298 29.4501 75.1846 29.2906 75.1303 29.1819C74.8841 28.6994 74.4831 28.353 74.0288 28.1813C73.5474 27.9974 73.0077 28.0096 72.5303 28.2564C71.6006 28.739 71.2548 29.9378 71.7594 30.9303C72.1453 31.6902 73.9062 32.9936 75.266 33.8632C76.6279 32.9926 78.3887 31.6892 78.7747 30.9303C79.2772 29.9378 78.9314 28.739 78.0018 28.2564H77.9998Z" fill="#FF8D78"/>
<path d="M22.3032 12.3159C20.89 12.3159 15.0637 11.8669 12.8969 10.2059C11.729 9.31091 10.9611 8.01767 10.733 6.56391C10.5028 5.09086 10.8536 3.63101 11.7199 2.45256C13.4979 0.0367491 16.9181 -0.416342 19.3443 1.44276C19.9564 1.9121 20.9473 2.96051 22.478 6.62995C23.267 8.52155 23.8248 10.2181 23.8479 10.2892L24.468 12.1808L22.5172 12.3119C22.465 12.3149 22.3926 12.317 22.3021 12.317L22.3032 12.3159ZM15.9944 3.37094C15.2748 3.37094 14.5783 3.68891 14.129 4.29947C13.7572 4.80539 13.6074 5.43728 13.7079 6.08034C13.8115 6.74271 14.1652 7.33498 14.7049 7.74744C15.5482 8.39355 18.2267 8.8883 20.2217 9.11484C19.288 6.69192 18.1744 4.3909 17.5352 3.90124C17.0688 3.54466 16.5251 3.37094 15.9944 3.37094Z" fill="#E06290"/>
<path d="M20.2192 13.3036C18.2031 13.5342 16.0734 14.736 14.799 16.3635C13.5336 17.9716 13.3406 19.7576 13.2442 22.0301H8.9375C9.04203 19.8673 9.64104 17.5846 10.8582 15.7397C12.4381 13.2985 14.9889 11.6629 17.6965 10.8969C18.378 10.7039 20.7368 10.3605 21.4464 10.2812L20.6313 13.1867L20.2202 13.3036H20.2192Z" fill="#E06290"/>
<path d="M23.1053 8.65531C24.432 10.5774 26.3999 12.3887 28.599 13.0633C30.7488 13.7562 32.9137 13.1436 34.7821 11.8869L36.9188 15.6102C34.8203 16.7348 32.2111 17.4022 29.7759 17.0009C26.6039 16.5133 23.9265 14.4206 22.0661 11.8849C21.6752 11.3535 21.3113 10.7978 20.9877 10.2198C20.9374 10.1294 20.8972 10.0562 20.8359 9.9384L23.1053 8.6543V8.65531Z" fill="#E06290"/>
<path d="M23.136 9.2334L23.9933 25.2785H19.6133L20.4706 9.2334H23.136Z" fill="#E06290"/>
<path d="M57.793 28.5049H65.2274C69.0335 28.5049 71.0587 30.299 71.0587 33.3955C71.0587 36.6484 68.8104 37.7699 67.742 38.2627L71.4949 44.4525V44.5643H66.3761L63.3127 39.1597H62.1107V44.5643H57.793V28.5039V28.5049ZM64.359 35.8854C65.5389 35.8854 66.4957 35.3247 66.4957 33.9339C66.4957 32.6549 65.6274 32.0718 64.5369 32.0718H62.1107V35.8854H64.359Z" fill="#E06290"/>
<path d="M29.75 28.5049H37.1844C40.9905 28.5049 43.0157 30.302 43.0157 33.4015C43.0157 36.6585 40.7674 37.7821 39.699 38.2758L43.4519 44.4748V44.5876H38.3332L35.2698 39.1749H34.0677V44.5876H29.75V28.5049ZM36.316 35.8956C37.496 35.8956 38.4528 35.3338 38.4528 33.941C38.4528 32.6609 37.5844 32.0768 36.4939 32.0768H34.0677V35.8956H36.316Z" fill="#E06290"/>
<path d="M41.8526 20.0202L36.1328 9.2334H41.0737L44.0557 15.468L47.0829 9.2334H51.8679L46.1703 20.0202V25.2897H41.8526V20.0202Z" fill="#E06290"/>
<path d="M50.9609 17.2192C50.9609 12.0676 54.6113 8.7832 59.2627 8.7832C63.9141 8.7832 67.4086 12.09 67.4086 17.2426C67.4086 22.3953 63.9362 25.7691 59.2848 25.7691C54.6334 25.7691 50.9609 22.3942 50.9609 17.2203V17.2192ZM62.8457 17.2639C62.8457 14.0242 61.2205 12.6518 59.2175 12.6518C57.2144 12.6518 55.5229 14.0019 55.5229 17.2639C55.5229 20.526 57.2365 21.8985 59.2396 21.8985C61.2426 21.8985 62.8457 20.526 62.8457 17.2639Z" fill="#E06290"/>
<path d="M68.4033 20.3609V9.22461H72.7211V19.281C72.7211 20.9237 73.4779 21.9356 75.4367 21.9356C77.3956 21.9356 78.1071 20.9461 78.1071 19.281V9.22461H82.4249V20.3162C82.4249 23.241 79.7544 25.7604 75.3915 25.7604C71.0285 25.7604 68.4023 23.241 68.4023 20.3609H68.4033Z" fill="#E06290"/>
<path d="M83.3867 9.23242H90.8211C94.6272 9.23242 96.6524 11.0265 96.6524 14.122C96.6524 17.3739 94.4041 18.4954 93.3357 18.9881L97.0886 25.177V25.2887H91.9699L88.9065 19.8852H87.7044V25.2887H83.3867V9.23242ZM89.9527 16.6109C91.1327 16.6109 92.0895 16.0501 92.0895 14.6594C92.0895 13.3814 91.2211 12.7982 90.1306 12.7982H87.7044V16.6109H89.9527Z" fill="#E06290"/>
<path d="M0.414062 40.5411L4.55388 38.6962C4.86545 40.3156 5.84437 41.4412 7.49165 41.4412C8.49369 41.4412 9.16105 41.0592 9.16105 40.3166C9.16105 39.1696 7.66955 38.7866 6.17805 38.3142C3.55184 37.4822 0.991969 36.3342 0.991969 33.1402C0.991969 30.1484 3.21716 28.0557 6.91274 28.0557C10.6083 28.0557 12.6777 30.1027 13.4788 32.5774L9.60629 34.085C9.31683 32.7349 8.58214 31.5433 7.2022 31.5433C6.37906 31.5433 5.66648 31.9933 5.66648 32.7806C5.66648 33.9509 7.18009 34.2882 8.84948 34.8053C11.2315 35.5479 13.8356 36.7396 13.8356 40.0027C13.8356 43.2657 11.4094 45.0425 7.46954 45.0425C3.52973 45.0425 1.17087 43.0402 0.414062 40.5431V40.5411Z" fill="#E06290"/>
<path d="M14.7705 39.6412V28.5049H19.0882V38.5613C19.0882 40.204 19.8451 41.2158 21.8039 41.2158C23.7628 41.2158 24.4743 40.2263 24.4743 38.5613V28.5049H28.792V39.5965C28.792 42.5213 26.1216 45.0407 21.7587 45.0407C17.3957 45.0407 14.7695 42.5213 14.7695 39.6412H14.7705Z" fill="#E06290"/>
<path d="M44.0352 28.5049H51.2022C54.8526 28.5049 56.8335 30.8191 56.8335 33.8973C56.8335 36.7052 55.1641 39.4014 50.8243 39.4014H48.3539V44.5683H44.0362V28.5049H44.0352ZM50.6233 35.7168C51.7811 35.7168 52.4485 35.0879 52.4485 33.9867C52.4485 32.8184 51.6917 32.3013 50.7127 32.3013H48.3539V35.7157H50.6243L50.6233 35.7168Z" fill="#E06290"/>
<path d="M78.2461 40.5411L82.3859 38.6962C82.6975 40.3156 83.6764 41.4412 85.3237 41.4412C86.3257 41.4412 86.9931 41.0592 86.9931 40.3166C86.9931 39.1696 85.5016 38.7866 84.0101 38.3142C81.3839 37.4822 78.824 36.3342 78.824 33.1402C78.824 30.1484 81.0492 28.0557 84.7448 28.0557C88.4404 28.0557 90.5098 30.1027 91.3108 32.5774L87.4383 34.085C87.1489 32.7349 86.4142 31.5433 85.0342 31.5433C84.2111 31.5433 83.4985 31.9933 83.4985 32.7806C83.4985 33.9509 85.0121 34.2882 86.6815 34.8053C89.0635 35.5479 91.6676 36.7396 91.6676 40.0027C91.6676 43.2657 89.2414 45.0425 85.3016 45.0425C81.3618 45.0425 79.0029 43.0402 78.2461 40.5431V40.5411Z" fill="#E06290"/>
<path d="M92.5674 28.5098H104.586V32.3743H96.8851V34.5981H103.585V38.1029H96.8851V40.7087H104.474V44.5732H92.5664V28.5098H92.5674Z" fill="#E06290"/>
<path d="M75.2739 35.0027C75.2739 35.0027 75.2739 35.0118 75.2729 35.0169C75.2699 35.0149 75.2659 35.0128 75.2629 35.0108C75.2599 35.0128 75.2558 35.0149 75.2528 35.0169C75.2528 35.0118 75.2528 35.0078 75.2518 35.0027C74.5533 34.5597 73.7543 34.0071 73.0859 33.4707V44.5694H77.4408V33.4707C76.7725 34.0071 75.9735 34.5597 75.2749 35.0027H75.2739Z" fill="#E06290"/>
</g>
<defs>
<clipPath id="clip0_996_1948">
<rect width="105" height="46" fill="white"/>
</clipPath>
</defs>
</svg>
